<svg id="visual" viewBox="0 0 960 540" width="960" height="540" xmlns="http://www.w3.org/2000/svg" xmlns:xlink="http://www.w3.org/1999/xlink" version="1.1"><rect x="0" y="0" width="960" height="540" fill="#0066FF"></rect><defs><linearGradient id="grad1_0" x1="43.8%" y1="100%" x2="100%" y2="0%"><stop offset="14.444444444444446%" stop-color="#4facf7" stop-opacity="1"></stop><stop offset="85.55555555555554%" stop-color="#4facf7" stop-opacity="1"></stop></linearGradient></defs><defs><linearGradient id="grad1_1" x1="43.8%" y1="100%" x2="100%" y2="0%"><stop offset="14.444444444444446%" stop-color="#4facf7" stop-opacity="1"></stop><stop offset="85.55555555555554%" stop-color="#2ea0fc" stop-opacity="1"></stop></linearGradient></defs><defs><linearGradient id="grad1_2" x1="43.8%" y1="100%" x2="100%" y2="0%"><stop offset="14.444444444444446%" stop-color="#0093ff" stop-opacity="1"></stop><stop offset="85.55555555555554%" stop-color="#2ea0fc" stop-opacity="1"></stop></linearGradient></defs><defs><linearGradient id="grad1_3" x1="43.8%" y1="100%" x2="100%" y2="0%"><stop offset="14.444444444444446%" stop-color="#0093ff" stop-opacity="1"></stop><stop offset="85.55555555555554%" stop-color="#0085ff" stop-opacity="1"></stop></linearGradient></defs><defs><linearGradient id="grad1_4" x1="43.8%" y1="100%" x2="100%" y2="0%"><stop offset="14.444444444444446%" stop-color="#0077ff" stop-opacity="1"></stop><stop offset="85.55555555555554%" stop-color="#0085ff" stop-opacity="1"></stop></linearGradient></defs><defs><linearGradient id="grad1_5" x1="43.8%" y1="100%" x2="100%" y2="0%"><stop offset="14.444444444444446%" stop-color="#0077ff" stop-opacity="1"></stop><stop offset="85.55555555555554%" stop-color="#0066ff" stop-opacity="1"></stop></linearGradient></defs><defs><linearGradient id="grad2_0" x1="0%" y1="100%" x2="56.3%" y2="0%"><stop offset="14.444444444444446%" stop-color="#4facf7" stop-opacity="1"></stop><stop offset="85.55555555555554%" stop-color="#4facf7" stop-opacity="1"></stop></linearGradient></defs><defs><linearGradient id="grad2_1" x1="0%" y1="100%" x2="56.3%" y2="0%"><stop offset="14.444444444444446%" stop-color="#2ea0fc" stop-opacity="1"></stop><stop offset="85.55555555555554%" stop-color="#4facf7" stop-opacity="1"></stop></linearGradient></defs><defs><linearGradient id="grad2_2" x1="0%" y1="100%" x2="56.3%" y2="0%"><stop offset="14.444444444444446%" stop-color="#2ea0fc" stop-opacity="1"></stop><stop offset="85.55555555555554%" stop-color="#0093ff" stop-opacity="1"></stop></linearGradient></defs><defs><linearGradient id="grad2_3" x1="0%" y1="100%" x2="56.3%" y2="0%"><stop offset="14.444444444444446%" stop-color="#0085ff" stop-opacity="1"></stop><stop offset="85.55555555555554%" stop-color="#0093ff" stop-opacity="1"></stop></linearGradient></defs><defs><linearGradient id="grad2_4" x1="0%" y1="100%" x2="56.3%" y2="0%"><stop offset="14.444444444444446%" stop-color="#0085ff" stop-opacity="1"></stop><stop offset="85.55555555555554%" stop-color="#0077ff" stop-opacity="1"></stop></linearGradient></defs><defs><linearGradient id="grad2_5" x1="0%" y1="100%" x2="56.3%" y2="0%"><stop offset="14.444444444444446%" stop-color="#0066ff" stop-opacity="1"></stop><stop offset="85.55555555555554%" stop-color="#0077ff" stop-opacity="1"></stop></linearGradient></defs><g transform="translate(960, 540)"><path d="M-405 0C-385.9 -30.8 -366.8 -61.7 -361.3 -96.8C-355.7 -131.9 -363.6 -171.4 -350.7 -202.5C-337.9 -233.6 -304.2 -256.3 -272.2 -272.2C-240.2 -288.1 -209.9 -297.2 -183 -317C-156.1 -336.7 -132.7 -367 -102.8 -383.5C-72.8 -399.9 -36.4 -402.5 0 -405L0 0Z" fill="#006fff"></path><path d="M-337.5 0C-321.6 -25.7 -305.7 -51.4 -301 -80.7C-296.4 -110 -303 -142.8 -292.3 -168.8C-281.6 -194.7 -253.5 -213.6 -226.9 -226.9C-200.2 -240.1 -174.9 -247.7 -152.5 -264.1C-130.1 -280.6 -110.6 -305.9 -85.6 -319.6C-60.7 -333.3 -30.3 -335.4 0 -337.5L0 0Z" fill="#007eff"></path><path d="M-270 0C-257.3 -20.6 -244.6 -41.1 -240.8 -64.5C-237.1 -88 -242.4 -114.3 -233.8 -135C-225.3 -155.7 -202.8 -170.9 -181.5 -181.5C-160.2 -192.1 -139.9 -198.2 -122 -211.3C-104.1 -224.5 -88.4 -244.7 -68.5 -255.6C-48.6 -266.6 -24.3 -268.3 0 -270L0 0Z" fill="#008cff"></path><path d="M-202.5 0C-193 -15.4 -183.4 -30.8 -180.6 -48.4C-177.8 -66 -181.8 -85.7 -175.4 -101.3C-168.9 -116.8 -152.1 -128.2 -136.1 -136.1C-120.1 -144.1 -104.9 -148.6 -91.5 -158.5C-78.1 -168.3 -66.3 -183.5 -51.4 -191.7C-36.4 -200 -18.2 -201.2 0 -202.5L0 0Z" fill="#179afe"></path><path d="M-135 0C-128.6 -10.3 -122.3 -20.6 -120.4 -32.3C-118.6 -44 -121.2 -57.1 -116.9 -67.5C-112.6 -77.9 -101.4 -85.4 -90.7 -90.7C-80.1 -96 -70 -99.1 -61 -105.7C-52 -112.2 -44.2 -122.3 -34.3 -127.8C-24.3 -133.3 -12.1 -134.2 0 -135L0 0Z" fill="#3fa6f9"></path><path d="M-67.5 0C-64.3 -5.1 -61.1 -10.3 -60.2 -16.1C-59.3 -22 -60.6 -28.6 -58.5 -33.8C-56.3 -38.9 -50.7 -42.7 -45.4 -45.4C-40 -48 -35 -49.5 -30.5 -52.8C-26 -56.1 -22.1 -61.2 -17.1 -63.9C-12.1 -66.7 -6.1 -67.1 0 -67.5L0 0Z" fill="#4facf7"></path></g><g transform="translate(0, 0)"><path d="M405 0C404.1 36 403.2 72.1 391.2 104.8C379.2 137.6 356.2 167 332.6 192C308.9 217 284.5 237.6 261.6 261.6C238.8 285.7 217.4 313.1 190 329.1C162.6 345.1 129.2 349.6 96.5 360.3C63.9 371 31.9 388 0 405L0 0Z" fill="#006fff"></path><path d="M337.5 0C336.7 30 336 60.1 326 87.4C316 114.6 296.9 139.2 277.1 160C257.4 180.8 237.1 198 218 218C199 238 181.2 260.9 158.3 274.2C135.5 287.6 107.7 291.3 80.4 300.2C53.2 309.2 26.6 323.3 0 337.5L0 0Z" fill="#007eff"></path><path d="M270 0C269.4 24 268.8 48.1 260.8 69.9C252.8 91.7 237.5 111.3 221.7 128C205.9 144.7 189.7 158.4 174.4 174.4C159.2 190.4 144.9 208.7 126.7 219.4C108.4 230 86.1 233 64.4 240.2C42.6 247.4 21.3 258.7 0 270L0 0Z" fill="#008cff"></path><path d="M202.5 0C202 18 201.6 36 195.6 52.4C189.6 68.8 178.1 83.5 166.3 96C154.4 108.5 142.2 118.8 130.8 130.8C119.4 142.8 108.7 156.6 95 164.5C81.3 172.5 64.6 174.8 48.3 180.1C31.9 185.5 16 194 0 202.5L0 0Z" fill="#179afe"></path><path d="M135 0C134.7 12 134.4 24 130.4 34.9C126.4 45.9 118.7 55.7 110.9 64C103 72.3 94.8 79.2 87.2 87.2C79.6 95.2 72.5 104.4 63.3 109.7C54.2 115 43.1 116.5 32.2 120.1C21.3 123.7 10.6 129.3 0 135L0 0Z" fill="#3fa6f9"></path><path d="M67.5 0C67.3 6 67.2 12 65.2 17.5C63.2 22.9 59.4 27.8 55.4 32C51.5 36.2 47.4 39.6 43.6 43.6C39.8 47.6 36.2 52.2 31.7 54.8C27.1 57.5 21.5 58.3 16.1 60C10.6 61.8 5.3 64.7 0 67.5L0 0Z" fill="#4facf7"></path></g></svg>